<svg width="66" height="69" viewBox="0 0 66 69" fill="none" xmlns="http://www.w3.org/2000/svg">
<path d="M8.10472 46.721H11.6411C12.4876 46.721 13.1771 46.0315 13.1771 45.1849V42.9321C13.1771 42.0855 12.4876 41.396 11.6411 41.396H8.10472C7.25818 41.396 6.56866 42.0855 6.56866 42.9321V45.1849C6.56866 46.0315 7.25818 46.721 8.10472 46.721ZM8.51432 43.3485H11.2246V44.7822H8.51432V43.3485Z" fill="#F2E7E8"/>
<path d="M16.3311 46.721H19.8674C20.714 46.721 21.4035 46.0315 21.4035 45.1849V42.9321C21.4035 42.0855 20.714 41.396 19.8674 41.396H16.3311C15.4846 41.396 14.795 42.0855 14.795 42.9321V45.1849C14.795 46.0315 15.4846 46.721 16.3311 46.721ZM16.7407 43.3485H19.451V44.7822H16.7407V43.3485Z" fill="#F2E7E8"/>
<path d="M24.5576 46.721H28.0939C28.9404 46.721 29.63 46.0315 29.63 45.1849V42.9321C29.63 42.0855 28.9404 41.396 28.0939 41.396H24.5576C23.711 41.396 23.0215 42.0855 23.0215 42.9321V45.1849C23.0215 46.0315 23.711 46.721 24.5576 46.721ZM24.9672 43.3485H27.6775V44.7822H24.9672V43.3485Z" fill="#F2E7E8"/>
<path d="M6.56866 53.0839C6.56866 53.9304 7.25818 54.6199 8.10472 54.6199H11.6411C12.4876 54.6199 13.1771 53.9304 13.1771 53.0839V50.8378C13.1771 49.9913 12.4876 49.3018 11.6411 49.3018H8.10472C7.25818 49.3018 6.56866 49.9913 6.56866 50.8378V53.0839ZM8.51432 51.2474H11.2246V52.6743H8.51432V51.2474Z" fill="#F2E7E8"/>
<path d="M14.795 53.0839C14.795 53.9304 15.4846 54.6199 16.3311 54.6199H19.8674C20.714 54.6199 21.4035 53.9304 21.4035 53.0839V50.8378C21.4035 49.9913 20.714 49.3018 19.8674 49.3018H16.3311C15.4846 49.3018 14.795 49.9913 14.795 50.8378V53.0839ZM16.7407 51.2474H19.451V52.6743H16.7407V51.2474Z" fill="#F2E7E8"/>
<path d="M23.0215 53.0839C23.0215 53.9304 23.711 54.6199 24.5576 54.6199H28.0939C28.9404 54.6199 29.63 53.9304 29.63 53.0839V50.8378C29.63 49.9913 28.9404 49.3018 28.0939 49.3018H24.5576C23.711 49.3018 23.0215 49.9913 23.0215 50.8378V53.0839ZM24.9672 51.2474H27.6775V52.6743H24.9672V51.2474Z" fill="#F2E7E8"/>
<path d="M6.56866 60.9823C6.56866 61.8288 7.25818 62.5183 8.10472 62.5183H11.6411C12.4876 62.5183 13.1771 61.8288 13.1771 60.9823V58.7294C13.1771 57.8829 12.4876 57.1934 11.6411 57.1934H8.10472C7.25818 57.1934 6.56866 57.8829 6.56866 58.7294V60.9823ZM8.51432 59.1458H11.2246V60.5726H8.51432V59.1458Z" fill="#F2E7E8"/>
<path d="M14.795 60.9823C14.795 61.8288 15.4846 62.5183 16.3311 62.5183H19.8674C20.714 62.5183 21.4035 61.8288 21.4035 60.9823V58.7294C21.4035 57.8829 20.714 57.1934 19.8674 57.1934H16.3311C15.4846 57.1934 14.795 57.8829 14.795 58.7294V60.9823ZM16.7407 59.1458H19.451V60.5726H16.7407V59.1458Z" fill="#F2E7E8"/>
<path d="M23.0215 60.9823C23.0215 61.8288 23.711 62.5183 24.5576 62.5183H28.0939C28.9404 62.5183 29.63 61.8288 29.63 60.9823V58.7294C29.63 57.8829 28.9404 57.1934 28.0939 57.1934H24.5576C23.711 57.1934 23.0215 57.8829 23.0215 58.7294V60.9823ZM24.9672 59.1458H27.6775V60.5726H24.9672V59.1458Z" fill="#F2E7E8"/>
<path d="M63.4027 63.3856V41.7852C63.4027 41.7579 63.3959 41.7306 63.3959 41.7033V35.798C63.3959 35.7707 63.4027 35.7434 63.4027 35.7161V27.9471C63.4027 27.1142 62.7268 26.4383 61.8939 26.4383H60.3715V23.7212C60.3715 22.6494 59.4977 21.7756 58.4258 21.7756H55.7975V19.1677C55.7975 18.0686 54.9031 17.1742 53.804 17.1742H53.1418V10.2654C53.1418 9.72608 52.7049 9.28913 52.1656 9.28913C51.6262 9.28913 51.1962 9.72608 51.1962 10.2654V17.1742H50.5339C49.4348 17.1742 48.5405 18.0686 48.5405 19.1677V21.7756H47.8919V5.99859H48.0694C48.8067 5.99859 49.4075 5.39781 49.4075 4.6605V2.18916C49.4075 1.45186 48.8067 0.851074 48.0694 0.851074H18.6045C17.8672 0.851074 17.2664 1.45186 17.2664 2.18916V4.6605C17.2664 5.39781 17.8672 5.99859 18.6045 5.99859H19.096V36.6719H16.9729V33.907C16.9729 33.1219 16.3379 32.487 15.5528 32.487H7.74286C6.9646 32.487 6.32285 33.1219 6.32285 33.907V36.6719H4.79363C3.9471 36.6719 3.25758 37.3614 3.25758 38.208V51.971C3.25758 51.9778 3.25758 51.9847 3.25758 51.9915V58.0128C3.25758 58.0196 3.25758 58.0265 3.25758 58.0333V63.3992C1.92633 63.4402 0.854492 64.5325 0.854492 65.8706C0.854492 67.2359 1.96728 68.3487 3.33266 68.3487H63.3344C64.6998 68.3487 65.8126 67.2359 65.8126 65.8706C65.8057 64.5188 64.7339 63.4266 63.4027 63.3856ZM50.4657 19.1677C50.4657 19.1404 50.4862 19.1199 50.5135 19.1199H53.7904C53.8177 19.1199 53.8382 19.1404 53.8382 19.1677V21.7756H50.4657V19.1677ZM47.8715 23.7212H58.419V26.4383H47.8715V23.7212ZM47.8715 34.4258H58.146V35.9619H47.8715V34.4258ZM47.8715 42.4065H58.146V43.9425H47.8715V42.4065ZM47.8715 50.3871H58.146V51.9232H47.8715V50.3871ZM47.8715 58.3678H58.146V59.9039H47.8715V58.3678ZM47.8715 61.8495H58.3166C59.2997 61.8495 60.0984 61.0508 60.0984 60.0677V58.204C60.0984 57.2209 59.2997 56.4221 58.3166 56.4221H47.8715V53.8689H58.3166C59.2997 53.8689 60.0984 53.0701 60.0984 52.087V50.2233C60.0984 49.2402 59.2997 48.4415 58.3166 48.4415H47.8715V45.8882H58.3166C59.2997 45.8882 60.0984 45.0894 60.0984 44.1064V42.2426C60.0984 41.2596 59.2997 40.4608 58.3166 40.4608H47.8715V37.9076H58.3166C59.2997 37.9076 60.0984 37.1088 60.0984 36.1257V34.262C60.0984 33.2789 59.2997 32.4802 58.3166 32.4802H47.8715V28.384H61.4433V43.6012H61.4502V63.3788H47.8715V61.8495ZM19.2052 2.78994H47.4482V4.04606H19.2052V2.78994ZM32.2105 33.0604H34.7433V36.3851H32.2105V33.0604ZM33.3165 44.8232H34.7501V48.1479H33.3165V44.8232ZM33.3165 56.5791H34.7501V59.9039H33.3165V56.5791ZM33.3165 61.8495H35.269C36.0541 61.8495 36.6958 61.2078 36.6958 60.4227V56.0603C36.6958 55.2752 36.0541 54.6335 35.269 54.6335H33.3165V50.0936H35.269C36.0541 50.0936 36.6958 49.4519 36.6958 48.6668V44.3044C36.6958 43.5193 36.0541 42.8775 35.269 42.8775H33.3165V38.3377H35.269C36.0541 38.3377 36.6958 37.6959 36.6958 36.9108V32.5484C36.6958 31.7633 36.0541 31.1216 35.269 31.1216H31.6985C30.9134 31.1216 30.2717 31.7633 30.2717 32.5484V36.6719H28.8517V32.5484C28.8517 31.7633 28.21 31.1216 27.4249 31.1216H23.8544C23.0693 31.1216 22.4276 31.7633 22.4276 32.5484V36.6719H21.0417V5.99859H45.9394V63.3856H33.3233V61.8495H33.3165ZM26.8992 36.3851H24.3664V33.0604H26.8992V36.3851ZM8.26171 34.4258H15.0135V36.6651H8.26171V34.4258ZM5.19644 38.6107H31.3708V63.3788H5.19644V58.0196C5.19644 57.9991 5.18961 57.9787 5.18961 57.9582V52.0256C5.18961 52.0051 5.19644 51.9846 5.19644 51.9641V38.6107ZM63.3276 66.3894H3.32587C3.03232 66.3894 2.79335 66.1505 2.79335 65.8569C2.79335 65.5634 3.03232 65.3244 3.32587 65.3244H63.3276C63.6211 65.3244 63.8601 65.5634 63.8601 65.8569C63.8532 66.1505 63.6143 66.3894 63.3276 66.3894Z" fill="#F2E7E8"/>
<path d="M27.418 7.59619H23.8476C23.0625 7.59619 22.4207 8.23794 22.4207 9.02303V13.3854C22.4207 14.1705 23.0625 14.8191 23.8476 14.8191H27.418C28.2031 14.8191 28.8448 14.1773 28.8448 13.3854V9.02303C28.8448 8.23794 28.2099 7.59619 27.418 7.59619ZM26.8992 12.8666H24.3664V9.54184H26.8992V12.8666Z" fill="#F2E7E8"/>
<path d="M31.6917 14.8118H35.2622C36.0473 14.8118 36.689 14.17 36.689 13.3781V9.01571C36.689 8.23062 36.0473 7.58887 35.2622 7.58887H31.6917C30.8998 7.58887 30.258 8.23062 30.258 9.01571V13.3781C30.2649 14.17 30.9066 14.8118 31.6917 14.8118ZM32.2106 9.54135H34.7433V12.8661H32.2106V9.54135Z" fill="#F2E7E8"/>
<path d="M39.5427 14.8118H43.1131C43.8982 14.8118 44.54 14.17 44.54 13.3781V9.01571C44.54 8.23062 43.8982 7.58887 43.1131 7.58887H39.5427C38.7576 7.58887 38.1158 8.23062 38.1158 9.01571V13.3781C38.109 14.17 38.7508 14.8118 39.5427 14.8118ZM40.0547 9.54135H42.5875V12.8661H40.0547V9.54135Z" fill="#F2E7E8"/>
<path d="M27.418 19.3584H23.8476C23.0625 19.3584 22.4207 20.0001 22.4207 20.7852V25.1476C22.4207 25.9327 23.0625 26.5744 23.8476 26.5744H27.418C28.2031 26.5744 28.8448 25.9327 28.8448 25.1476V20.7852C28.8448 19.9933 28.2099 19.3584 27.418 19.3584ZM26.8992 24.622H24.3664V21.2973H26.8992V24.622Z" fill="#F2E7E8"/>
<path d="M35.2622 26.5681C36.0473 26.5681 36.689 25.9264 36.689 25.1413V20.7789C36.689 19.9938 36.0473 19.3521 35.2622 19.3521H31.6917C30.8998 19.3521 30.258 19.9938 30.258 20.7789V25.1413C30.258 25.9264 30.8998 26.5681 31.6917 26.5681H35.2622ZM32.2106 21.3045H34.7433V24.6292H32.2106V21.3045Z" fill="#F2E7E8"/>
<path d="M39.5427 26.5681H43.1131C43.8982 26.5681 44.54 25.9264 44.54 25.1413V20.7789C44.54 19.9938 43.8982 19.3521 43.1131 19.3521H39.5427C38.7576 19.3521 38.1158 19.9938 38.1158 20.7789V25.1413C38.109 25.9332 38.7508 26.5681 39.5427 26.5681ZM40.0547 21.3045H42.5875V24.6292H40.0547V21.3045Z" fill="#F2E7E8"/>
<path d="M39.5427 38.3308H43.1131C43.8982 38.3308 44.54 37.689 44.54 36.904V32.5415C44.54 31.7565 43.8982 31.1147 43.1131 31.1147H39.5427C38.7576 31.1147 38.1158 31.7565 38.1158 32.5415V36.904C38.109 37.689 38.7508 38.3308 39.5427 38.3308ZM40.0547 33.0604H42.5875V36.3851H40.0547V33.0604Z" fill="#F2E7E8"/>
<path d="M39.5427 50.0862H43.1131C43.8982 50.0862 44.54 49.4445 44.54 48.6594V44.297C44.54 43.5119 43.8982 42.8701 43.1131 42.8701H39.5427C38.7576 42.8701 38.1158 43.5119 38.1158 44.297V48.6594C38.109 49.4513 38.7508 50.0862 39.5427 50.0862ZM40.0547 44.8226H42.5875V48.1473H40.0547V44.8226Z" fill="#F2E7E8"/>
<path d="M39.5427 61.8489H43.1131C43.8982 61.8489 44.54 61.2071 44.54 60.422V56.0596C44.54 55.2745 43.8982 54.6328 43.1131 54.6328H39.5427C38.7576 54.6328 38.1158 55.2745 38.1158 56.0596V60.422C38.109 61.2071 38.7508 61.8489 39.5427 61.8489ZM40.0547 56.5785H42.5875V59.9032H40.0547V56.5785Z" fill="#F2E7E8"/>
</svg>
