<svg width="400" height="177" viewBox="0 0 400 177" fill="none" xmlns="http://www.w3.org/2000/svg">
<path d="M5.06216 88.3582L0.0362549 82.9155L4.86281 78.1855L12.752 86.0748L5.06216 88.3582Z" fill="#DE4B51"/>
<path d="M170.929 88.2795L175.991 82.9637L171.128 78.1069L163.239 86.0022L170.929 88.2795Z" fill="#E2932A"/>
<path d="M88.0137 5.37012C132.214 8.81938 167.474 44.0852 170.923 88.2793L106.438 69.8551L88.0137 5.37012Z" fill="#E2932A"/>
<path d="M90.134 12.7822L95.6129 8.89198L93.0758 0L88.0137 5.37022L90.134 12.7822Z" fill="#E2932A"/>
<path d="M175.991 82.9937C172.542 38.7936 137.276 3.53374 93.0818 0.0844727L111.506 64.5755L175.991 82.9937Z" fill="#FFC143"/>
<path d="M170.905 88.3701L175.967 93.686L171.11 98.5427L163.215 90.6475L170.905 88.3701Z" fill="#009065"/>
<path d="M87.9955 171.279C132.196 167.83 167.455 132.564 170.905 88.3701L106.414 106.794L87.9955 171.279Z" fill="#009065"/>
<path d="M90.1098 163.867L95.5948 167.757L93.0577 176.649L87.9955 171.279L90.1098 163.867Z" fill="#009065"/>
<path d="M175.967 93.7344L111.476 112.159L93.0516 176.65C137.252 173.194 172.518 137.935 175.967 93.7344Z" fill="#0AAF87"/>
<path d="M5.06215 88.3638L0 93.6796L4.8628 98.5364L12.752 90.6472L5.06215 88.3638Z" fill="#2FA194"/>
<path d="M87.9774 171.273C43.7773 167.824 8.51744 132.558 5.06818 88.3638L69.5531 106.788L87.9774 171.273Z" fill="#2FA194"/>
<path d="M85.8571 163.861L80.3782 167.752L82.9153 176.644L87.9774 171.273L85.8571 163.861Z" fill="#2FA194"/>
<path d="M0 93.728C3.44927 137.928 38.7151 173.188 82.9092 176.637L64.4849 112.146L0 93.728Z" fill="#64CCC9"/>
<path d="M88.0137 5.37012C43.8135 8.81938 8.5537 44.0852 5.10443 88.2793L69.5894 69.8551L88.0137 5.37012Z" fill="#DE4B51"/>
<path d="M82.9515 0C38.7514 3.44927 3.49156 38.7151 0.0422974 82.9092L64.5272 64.4849L82.9515 0Z" fill="#FF6D6A"/>
<path d="M85.8994 12.7822L80.4144 8.89198L82.9515 0L88.0137 5.37022L85.8994 12.7822Z" fill="#DE4B51"/>
<path d="M212.338 54.7349H217.219L228.28 85.9897H221.84L218.59 76.2218H209.342L206.231 85.9897H201.048L212.338 54.7349ZM210.484 72.2168H217.6L214.132 60.9327L210.484 72.2168Z" fill="black"/>
<path d="M250.969 85.9896H232.013V54.7529H237.492V81.9423H250.969V85.9896Z" fill="black"/>
<path d="M262.585 54.7531C265.455 54.7531 267.889 55.1578 269.888 55.9673C271.888 56.7768 273.519 57.8762 274.781 59.2655C276.044 60.6549 276.962 62.2678 277.53 64.1102C278.104 65.9527 278.388 67.9038 278.388 69.9577C278.388 71.3954 278.267 72.7847 278.031 74.1318C277.79 75.4789 277.409 76.7475 276.884 77.9315C276.358 79.1154 275.675 80.2028 274.842 81.1935C274.002 82.1841 272.993 83.0359 271.803 83.7426C270.613 84.4555 269.236 85.0052 267.677 85.3978C266.113 85.7905 264.343 85.9838 262.368 85.9838H254.732V54.7471H262.585V54.7531ZM260.217 58.7823V81.9606H261.89C263.431 81.9606 264.856 81.7129 266.167 81.2236C267.478 80.7343 268.608 79.9853 269.568 78.9886C270.523 77.9919 271.272 76.7354 271.809 75.2191C272.347 73.7029 272.619 71.933 272.619 69.8973C272.619 68.4777 272.438 67.0943 272.069 65.7593C271.701 64.4243 271.115 63.2404 270.293 62.2013C269.478 61.1623 268.408 60.3348 267.092 59.7126C265.775 59.0904 264.168 58.7762 262.271 58.7762H260.217V58.7823Z" fill="black"/>
<path d="M292.922 54.7349H297.803L308.863 85.9897H302.424L299.174 76.2218H289.926L286.815 85.9897H281.632L292.922 54.7349ZM291.067 72.2168H298.183L294.716 60.9327L291.067 72.2168Z" fill="black"/>
<path d="M321.549 54.7349H326.43L337.49 85.9897H331.051L327.801 76.2218H318.553L315.442 85.9897H310.259L321.549 54.7349ZM319.694 72.2168H326.81L323.343 60.9327L319.694 72.2168Z" fill="black"/>
<path d="M348.617 85.9896V72.0355L338.97 54.7529H345.029L351.728 67.7466L357.95 54.7529H363.991L354.102 71.7154V85.9896H348.617Z" fill="black"/>
<path d="M370.678 78.2333C371.385 78.9643 372.007 79.5804 372.563 80.0878C373.113 80.5952 373.668 81 374.218 81.3141C374.768 81.6282 375.36 81.8517 375.994 81.9906C376.622 82.1296 377.377 82.2021 378.253 82.2021C378.93 82.2021 379.594 82.1296 380.235 81.9906C380.881 81.8517 381.455 81.6161 381.956 81.2839C382.464 80.9516 382.868 80.5046 383.171 79.9489C383.479 79.3931 383.63 78.6924 383.63 77.8588C383.63 77.2849 383.515 76.7835 383.291 76.3426C383.068 75.9016 382.73 75.4969 382.276 75.1284C381.823 74.7538 381.262 74.3974 380.579 74.0531C379.902 73.7088 379.117 73.3403 378.229 72.9597C377.921 72.8268 377.643 72.706 377.39 72.6033C377.136 72.4946 376.9 72.3919 376.671 72.2832C376.447 72.1744 376.218 72.0718 375.994 71.9751C375.771 71.8784 375.529 71.7637 375.275 71.6489C374.756 71.4073 374.2 71.1536 373.602 70.8817C373.004 70.6099 372.412 70.2897 371.82 69.9273C371.228 69.5649 370.654 69.142 370.104 68.6648C369.555 68.1875 369.065 67.6258 368.649 66.9915C368.232 66.3512 367.893 65.6202 367.64 64.7987C367.386 63.9772 367.259 63.0408 367.259 61.9897C367.259 60.6185 367.555 59.4345 368.153 58.4197C368.751 57.4109 369.543 56.5772 370.533 55.9188C371.524 55.2604 372.654 54.7711 373.934 54.4449C375.209 54.1187 376.52 53.9556 377.861 53.9556C378.87 53.9556 379.818 54.028 380.712 54.167C381.6 54.3059 382.452 54.5294 383.255 54.8375C384.059 55.1456 384.832 55.5322 385.575 56.0154C386.318 56.4927 387.061 57.0666 387.81 57.731L384.759 61.7783C384.228 61.2347 383.72 60.7393 383.243 60.3044C382.766 59.8634 382.27 59.4949 381.757 59.1868C381.243 58.8788 380.688 58.6492 380.084 58.4922C379.48 58.3351 378.791 58.2505 378.024 58.2505C377.438 58.2505 376.846 58.3109 376.242 58.4317C375.638 58.5526 375.088 58.7459 374.599 59.0177C374.109 59.2895 373.705 59.6399 373.391 60.0748C373.076 60.5098 372.919 61.0353 372.919 61.6575C372.919 62.4005 373.125 63.071 373.536 63.663C373.946 64.255 374.448 64.7745 375.028 65.2276C375.614 65.6806 376.23 66.0672 376.87 66.3814C377.516 66.7015 378.072 66.9613 378.537 67.1606C378.948 67.3479 379.298 67.5049 379.582 67.6318C379.866 67.7587 380.15 67.8795 380.428 68.0003C380.706 68.1211 381.008 68.248 381.334 68.3808C381.66 68.5137 382.071 68.6889 382.56 68.9004C382.947 69.0574 383.376 69.2568 383.853 69.4863C384.33 69.7159 384.82 69.9998 385.321 70.326C385.816 70.6522 386.306 71.0388 386.789 71.4798C387.266 71.9268 387.695 72.4463 388.063 73.0443C388.438 73.6423 388.734 74.325 388.958 75.0982C389.181 75.8714 389.296 76.7473 389.296 77.7319C389.296 78.7287 389.145 79.6408 388.849 80.4623C388.553 81.2839 388.136 82.0269 387.61 82.6733C387.085 83.3257 386.463 83.8935 385.744 84.3767C385.025 84.86 384.258 85.2587 383.43 85.5728C382.609 85.8869 381.745 86.1225 380.851 86.2796C379.951 86.4366 379.051 86.5212 378.151 86.5212C376.912 86.5212 375.771 86.4246 374.72 86.2252C373.668 86.0259 372.678 85.7299 371.747 85.3372C370.817 84.9446 369.935 84.4613 369.108 83.8814C368.274 83.3015 367.477 82.637 366.703 81.8759L370.678 78.2333Z" fill="black"/>
<path d="M394.521 85.9896V54.7529H400V85.9896H394.521Z" fill="black"/>
<path d="M204.075 103.495V111.239H213.033V103.495H215.449V122.01H213.033V113.329H204.075V122.01H201.682V103.495H204.075Z" fill="black"/>
<path d="M246.408 112.563C246.408 118.936 242.536 122.312 237.812 122.312C232.919 122.312 229.488 118.519 229.488 112.919C229.488 107.041 233.143 103.193 238.084 103.193C243.14 103.193 246.408 107.065 246.408 112.563ZM232.037 112.865C232.037 116.821 234.182 120.361 237.945 120.361C241.739 120.361 243.877 116.87 243.877 112.671C243.877 108.992 241.956 105.145 237.969 105.145C234.019 105.145 232.037 108.799 232.037 112.865Z" fill="black"/>
<path d="M260.501 103.495H262.893V120.004H270.807V122.01H260.507V103.495H260.501Z" fill="black"/>
<path d="M284.459 103.743C285.915 103.526 287.648 103.356 289.539 103.356C292.97 103.356 295.417 104.154 297.036 105.664C298.685 107.174 299.645 109.319 299.645 112.315C299.645 115.335 298.709 117.806 296.981 119.509C295.254 121.237 292.396 122.173 288.796 122.173C287.093 122.173 285.667 122.089 284.453 121.956V103.743H284.459ZM286.845 120.12C287.449 120.228 288.331 120.258 289.261 120.258C294.372 120.258 297.144 117.401 297.144 112.399C297.175 108.032 294.698 105.259 289.648 105.259C288.409 105.259 287.479 105.368 286.845 105.507V120.12Z" fill="black"/>
<path d="M316.13 103.495V122.01H313.738V103.495H316.13Z" fill="black"/>
<path d="M331.299 122.01V103.495H333.908L339.84 112.864C341.212 115.033 342.287 116.984 343.163 118.881L343.217 118.851C343 116.38 342.945 114.127 342.945 111.239V103.495H345.198V122.01H342.782L336.904 112.617C335.612 110.557 334.379 108.442 333.443 106.437L333.359 106.467C333.497 108.805 333.552 111.028 333.552 114.103V122.016H331.299V122.01Z" fill="black"/>
<path d="M374.454 121.189C373.385 121.575 371.27 122.204 368.769 122.204C365.966 122.204 363.659 121.491 361.847 119.757C360.252 118.217 359.261 115.746 359.261 112.865C359.291 107.343 363.079 103.302 369.289 103.302C371.433 103.302 373.107 103.767 373.904 104.154L373.324 106.105C372.333 105.664 371.101 105.308 369.228 105.308C364.722 105.308 361.786 108.111 361.786 112.75C361.786 117.45 364.613 120.222 368.926 120.222C370.491 120.222 371.566 120.005 372.11 119.727V114.206H368.347V112.285H374.448V121.189H374.454Z" fill="black"/>
<path d="M388.77 119.099C389.84 119.757 391.41 120.307 393.053 120.307C395.5 120.307 396.925 119.014 396.925 117.147C396.925 115.42 395.935 114.429 393.434 113.469C390.413 112.399 388.541 110.829 388.541 108.219C388.541 105.332 390.933 103.193 394.527 103.193C396.424 103.193 397.795 103.634 398.623 104.099L397.964 106.051C397.36 105.718 396.122 105.175 394.449 105.175C391.924 105.175 390.957 106.685 390.957 107.947C390.957 109.675 392.081 110.533 394.636 111.518C397.765 112.726 399.36 114.236 399.36 116.954C399.36 119.811 397.245 122.282 392.878 122.282C391.09 122.282 389.139 121.763 388.154 121.098L388.77 119.099Z" fill="black"/>
</svg>
