<svg width="71" height="75" viewBox="0 0 71 75" fill="none" xmlns="http://www.w3.org/2000/svg">
<path d="M20.598 48.376C19.6832 48.376 18.939 49.1201 18.939 50.0349V66.6311C18.939 67.5459 19.6832 68.2901 20.598 68.2901C21.5128 68.2901 22.2569 67.5459 22.2569 66.6311V50.0349C22.2569 49.1269 21.506 48.376 20.598 48.376Z" fill="#DFF2EC"/>
<path d="M30.5516 48.376C29.6368 48.376 28.8927 49.1201 28.8927 50.0349V66.6311C28.8927 67.5459 29.6368 68.2901 30.5516 68.2901C31.4664 68.2901 32.2106 67.5459 32.2106 66.6311V50.0349C32.2106 49.1269 31.4664 48.376 30.5516 48.376Z" fill="#DFF2EC"/>
<path d="M40.512 48.376C39.5972 48.376 38.8531 49.1201 38.8531 50.0349V66.6311C38.8531 67.5459 39.5972 68.2901 40.512 68.2901C41.4268 68.2901 42.171 67.5459 42.171 66.6311V50.0349C42.171 49.1269 41.4268 48.376 40.512 48.376Z" fill="#DFF2EC"/>
<path d="M50.4657 48.376C49.5509 48.376 48.8067 49.1201 48.8067 50.0349V66.6311C48.8067 67.5459 49.5509 68.2901 50.4657 68.2901C51.3805 68.2901 52.1246 67.5459 52.1246 66.6311V50.0349C52.1314 49.1269 51.3805 48.376 50.4657 48.376Z" fill="#DFF2EC"/>
<path d="M64.3789 55.3671L66.9322 42.553C68.9734 41.406 70.3866 39.2692 70.3866 36.7638C70.3866 33.5415 68.0654 30.838 65.007 30.2577C63.9625 24.448 60.706 19.3688 55.8657 15.969C55.9818 15.8051 57.6749 14.5285 57.6749 11.9002C57.6749 10.4392 57.1083 9.06015 56.0842 8.03611C54.7257 6.69121 52.6981 6.14508 50.889 6.60931V5.71495C50.889 2.71111 48.4313 0.253418 45.4138 0.253418C42.4099 0.253418 39.9522 2.71111 39.9522 5.71495V6.54785C38.4094 6.24747 36.7846 6.67758 35.5353 7.67431V3.57816C35.5353 2.66336 34.7911 1.91919 33.8763 1.91919H13.9621C13.0473 1.91919 12.3033 2.66336 12.3033 3.57816V9.88622C6.99192 22.2839 7.36056 21.2735 7.34008 21.7719C7.34008 21.7855 7.32641 21.8197 7.32641 21.8401V30.1348C3.66036 30.1348 0.690674 33.1045 0.690674 36.7706C0.690674 39.2761 2.10388 41.4197 4.14513 42.5598L6.69839 55.3739L2.49982 64.2694C2.11751 65.1023 2.46563 66.0922 3.29852 66.4949C3.53063 66.5974 3.77643 66.6451 4.00854 66.6451C4.63662 66.6451 5.22371 66.297 5.51726 65.6962L7.79068 60.8355L10.6784 73.6154C10.8286 74.38 11.5113 74.9398 12.3033 74.9398H58.774C59.5727 74.9398 60.2486 74.3732 60.3988 73.6154L63.2866 60.8355L65.56 65.6962C65.8604 66.297 66.4406 66.6451 67.0687 66.6451C67.3008 66.6451 67.5466 66.5974 67.7856 66.4949C68.6185 66.099 68.9666 65.1023 68.5843 64.2694L64.3789 55.3671ZM61.6208 30.1212H40.512V21.8265C40.512 21.8128 40.4984 21.7787 40.4984 21.7582C40.4848 21.1301 40.396 21.3281 38.0953 15.8529C43.0585 14.5422 48.5337 15.2863 52.937 17.9624C57.4223 20.7137 60.5081 25.0761 61.6208 30.1212ZM37.4058 10.3914C38.2046 9.579 39.6109 9.579 40.4233 10.3914C40.9011 10.8556 41.618 11.0058 42.2324 10.7396C42.8605 10.4938 43.2633 9.8794 43.2633 9.21036V5.70815C43.2633 4.5271 44.2259 3.56449 45.4069 3.56449C46.6016 3.56449 47.5643 4.5271 47.5643 5.70815V9.51075C47.5643 10.1934 47.9602 10.7873 48.5815 11.0536C49.8444 11.5656 50.5408 10.487 50.7046 10.3914C51.517 9.579 52.9302 9.579 53.7221 10.3914C54.1386 10.7874 54.3502 11.3199 54.3502 11.9002C54.3502 13.2451 53.3057 13.7093 52.9097 14.1872C47.9807 11.7841 42.2051 11.2311 36.9416 12.7125C36.6275 11.9343 36.7777 11.0058 37.4058 10.3914ZM15.6143 5.23026H32.2105V8.54813H15.6143V5.23026ZM15.0545 11.866H32.7772L36.3271 20.1607H11.4976L15.0545 11.866ZM10.6374 23.4854H37.1941V30.1212H10.6374V23.4854ZM7.68142 43.3995H12.3101L9.06047 50.3015L7.68142 43.3995ZM57.4086 71.6151H13.6618L10.1596 55.7835L15.983 43.4063H55.0807L60.904 55.7835L57.4086 71.6151ZM62.0032 50.3015L58.7536 43.3995H63.3822L62.0032 50.3015ZM57.1902 40.0816L55.2991 36.0469C54.9032 35.2141 53.9064 34.8659 53.0735 35.2687C52.2407 35.651 51.8925 36.6477 52.2748 37.4737L53.5173 40.0816H17.5395L18.782 37.4737C19.1643 36.6409 18.8161 35.651 17.9832 35.2687C17.1503 34.8727 16.1604 35.2209 15.7576 36.0469L13.8666 40.0816H7.31274C5.48996 40.0816 3.99488 38.5865 3.99488 36.7638C3.99488 34.941 5.48996 33.4459 7.31274 33.4459H63.7372C65.56 33.4459 67.055 34.941 67.055 36.7638C67.055 38.5865 65.56 40.0816 63.7372 40.0816H57.1902Z" fill="#DFF2EC"/>
</svg>
