<svg width="70" height="69" viewBox="0 0 70 69" fill="none" xmlns="http://www.w3.org/2000/svg">
<path d="M35.0241 0C35.0034 0 34.9827 0 34.9551 0C15.726 0 0.0552759 15.4493 0 34.4593V34.4729C0.124371 53.7008 15.4634 68.8706 34.9274 69C35.0034 69 35.0863 69 35.1623 69C44.3727 69 53.0579 65.4457 59.6565 58.9774C66.3449 52.4206 70.0138 43.7257 70 34.4862C69.9654 15.5102 54.274 0.0408524 35.0241 0ZM46.0447 60.6523C45.6993 60.06 45.3677 59.5018 44.9877 58.9571L45.1604 58.8683C46.1554 58.3305 47.095 57.8198 48.0693 57.493C51.7451 56.2606 53.7972 53.8982 54.3361 50.2623C54.6263 48.3287 55.3726 46.6603 56.568 45.3054C56.9825 44.8356 57.6458 44.5429 58.3852 44.5088C59.1383 44.4748 59.8638 44.7132 60.3613 45.183C60.7206 45.5235 61.0868 45.8706 61.218 46.0408C61.1489 46.2723 60.8795 46.7897 60.6929 47.1505C57.4662 53.3941 52.6709 57.8199 46.0447 60.6523ZM51.296 42.0167C49.6516 44.284 48.5875 46.851 48.1453 49.629C47.9932 50.5958 47.4889 51.1543 46.3419 51.6241L45.9273 51.7943C44.3658 52.4343 42.7489 53.1013 41.3048 54.075C38.4098 56.0359 37.8156 58.9432 39.6673 62.0616L39.8885 62.4363C36.9726 62.9197 34.1121 62.9742 31.1756 62.6065C31.148 62.3478 31.1065 62.1026 31.0719 61.8575C31.0098 61.4626 30.9476 61.0949 30.9959 60.8498C31.1341 60.1757 31.4243 59.5426 31.7629 59.2021C32.4677 58.4804 33.2208 57.8198 34.0292 57.1253C34.7478 56.4989 35.4871 55.8521 36.185 55.1644L36.6548 54.7016C38.2509 53.122 39.9022 51.4877 41.3118 49.6765C44.5316 45.5368 44.9185 40.7369 42.4311 35.8074C40.5517 32.0898 38.2993 29.7542 35.3282 28.4538C34.0845 27.9091 32.6266 27.5279 30.7403 27.2556C29.3377 27.0513 28.3979 26.7722 27.7415 25.9211C27.0713 25.0496 26.9331 24.2189 27.3131 23.2385C29.3722 17.8732 28.5431 12.2421 25.1298 7.85731C30.5676 5.92363 35.9846 5.60367 41.6158 6.89053C41.5467 7.44203 41.4776 7.97984 41.3878 8.51093C41.367 8.6471 41.3118 8.74932 41.2911 8.77656C38.6793 11.8609 38.2647 15.5241 40.075 19.371C43.0254 25.635 47.786 29.6795 54.2187 31.3953C57.2865 32.2124 60.3957 31.9329 63.4912 30.5712C63.9265 33.5806 63.8574 36.5904 63.2771 39.6815C61.605 38.7215 59.8845 38.5036 58.6201 38.4355C55.5937 38.2925 53.1339 39.4907 51.296 42.0167ZM24.7705 60.9725C22.6769 60.2031 20.7975 59.2362 19.0632 58.0515C17.7021 57.1255 16.4238 56.0633 15.3667 55.1578C15.3114 55.0965 15.2492 54.9263 15.2492 54.8446C15.3252 51.236 16.4722 47.9268 18.6556 45.0195L19.0771 44.4543C20.611 42.4253 22.2002 40.3283 22.6907 37.598C22.9809 35.9843 23.2297 34.0913 22.8911 32.3143C22.3315 29.3661 20.1342 27.4121 16.5344 26.6631C14.9175 26.3227 13.2661 26.2139 11.67 26.1049C10.9653 26.0573 10.2675 26.0095 9.56962 25.9414C8.94777 25.8801 8.32592 25.819 7.67643 25.7509C9.85983 19.4664 13.5909 14.6118 19.0563 10.9419C19.0702 10.9419 19.0908 10.9419 19.0977 10.9419C19.9683 11.1665 20.5902 11.6499 20.9634 12.392C22.1172 14.7138 22.5042 17.1038 22.1104 19.4937C22.0344 19.9431 21.8478 20.4196 21.6474 20.9302C21.4263 21.4954 21.1914 22.0875 21.067 22.7411C20.6248 25.1038 21.2466 27.6028 22.7736 29.6114C24.3145 31.6404 26.6084 32.9475 29.0682 33.1926C33.8357 33.676 36.9105 36.4745 37.7396 41.0772C38.1265 43.2287 37.3872 45.1895 35.4249 47.2526C33.3658 49.411 31.0857 51.4537 29.1303 53.1627C26.8571 55.1372 24.5632 57.4932 24.7705 60.9725ZM14.7033 32.4981C15.9539 32.8454 16.6795 33.2131 16.9144 33.6421C17.1424 34.0574 17.0802 34.8133 16.714 35.9503C16.2373 37.4551 15.6223 38.7079 14.883 39.6815C12.4854 42.8476 10.9239 45.6664 10.0118 48.5465C7.04076 43.3787 5.81084 37.7681 6.34978 31.8036L7.24804 31.8651C9.45908 32.0081 11.6356 32.151 13.8051 32.3076C14.0401 32.3212 14.3302 32.4028 14.6342 32.4845L14.7033 32.4981ZM47.5718 9.05582C54.3431 12.433 59.0415 17.4984 61.8882 24.4978C59.5736 25.9481 57.1345 26.1457 54.4744 25.1175C50.4185 23.5515 47.4405 20.7122 45.6233 16.695C44.8771 15.0337 45.0982 13.6856 46.3281 12.4396C47.2194 11.5408 47.6271 10.4787 47.5787 9.1918C47.5718 9.14414 47.5718 9.10349 47.5718 9.05582Z" fill="#2C3252"/>
</svg>
