<svg width="40" height="33" viewBox="0 0 40 33" fill="none" xmlns="http://www.w3.org/2000/svg">
<path fill-rule="evenodd" clip-rule="evenodd" d="M2.36181 2.32698C0.204228 8.69225 2.71726 9.84205 4.64337 12.5948L1.52688 11.8505C1.34501 15.5705 3.99031 18.3893 6.86709 19.2243C6.11483 19.8442 4.94098 19.7867 4.44498 19.9686C5.70151 23.9448 8.59482 24.928 11.2732 25.6058C8.31376 28.061 4.80046 28.4497 0.220764 28.6977C11.7692 35.7409 26.2688 31.9381 32.5101 20.2987C36.0482 13.702 34.5602 9.69319 35.6679 8.18867C36.569 6.95695 37.9164 6.69248 39.0903 4.5349L35.2546 5.3777C36.3788 4.40225 37.4866 3.1703 38.09 1.42605C35.8994 2.05431 34.1469 3.74889 32.2373 2.39317C30.4104 1.07878 28.7901 0.327105 25.9051 0.715635C20.631 1.43483 19.1182 5.57646 19.1761 10.2884C8.50389 10.6604 4.27966 4.17043 2.36181 2.32698Z" fill="white"/>
</svg>
