<svg width="153" height="142" viewBox="0 0 153 142" fill="none" xmlns="http://www.w3.org/2000/svg">
<path d="M153 78.7781C152.102 80.3735 150.76 80.9148 148.922 80.8918C142.5 80.8112 136.078 80.8745 129.651 80.8457C128.792 80.8399 128.366 81.0184 128.107 81.963C123.643 98.3145 114.249 111.089 100.064 120.351C99.8217 120.506 99.6028 120.696 99.2803 120.938C100.985 123.968 102.667 126.951 104.349 129.929C105.57 132.095 106.825 134.243 108.023 136.426C109.406 138.949 108.092 141.224 105.23 141.241C100.352 141.264 95.4674 141.235 90.589 141.252C89.1434 141.258 88.147 140.636 87.4501 139.386C85.607 136.086 83.7006 132.82 81.8921 129.503C81.4428 128.679 80.9648 128.529 80.1181 128.731C70.1656 131.087 60.2015 131.087 50.2431 128.742C49.3216 128.524 48.832 128.719 48.3655 129.583C46.6088 132.82 44.7427 135.994 42.963 139.213C42.1855 140.619 41.1026 141.287 39.4669 141.27C34.6864 141.218 29.9059 141.269 25.1255 141.246C22.165 141.235 20.8576 138.966 22.3148 136.362C25.1831 131.248 28.0802 126.151 31.0291 120.927C30.1248 120.31 29.2667 119.746 28.4258 119.153C12.9498 108.244 3.46371 93.4938 0.704861 74.7463C-3.82218 43.9613 13.8252 14.7083 43.0609 4.02428C78.54 -8.94057 118.085 11.5981 127.934 48.1369C128.268 49.3695 128.706 49.8763 130.1 49.8533C136.372 49.7553 142.65 49.8648 148.922 49.7785C150.76 49.7554 152.102 50.291 152.994 51.8922C152.994 52.4912 152.994 53.0902 152.994 53.6835C152.366 54.438 151.785 55.2385 151.094 55.9354C148.588 58.4812 146.065 61.0097 143.514 63.5151C142.926 64.0911 142.201 64.5345 141.446 65.1104C144.119 67.7713 146.423 70.0176 148.669 72.3214C150.149 73.842 151.549 75.4374 152.988 76.9983C153 77.58 153 78.1791 153 78.7781ZM122.186 49.8648C115.522 24.1597 89.4832 2.12927 56.5268 6.79454C28.1781 10.8032 5.76749 35.4371 5.9806 65.8017C6.19946 96.7249 30.2976 122.321 61.1691 124.371C91.4645 126.387 115.758 105.675 122.146 80.8514C120.378 81.0645 118.915 80.5578 117.757 79.1812C116.991 78.2712 116.075 77.4878 115.24 76.6296C113.794 75.1494 112.36 73.6577 110.713 71.9529C110.592 72.6095 110.552 72.8398 110.511 73.0702C106.342 97.5082 83.3204 114.597 58.1798 110.819C31.4841 106.81 13.7906 80.2006 20.5236 54.0232C26.6921 30.046 50.3065 15.267 74.491 20.2605C78.8971 21.1706 83.1073 22.668 87.0526 24.8509C89.2298 26.0547 89.535 28.658 87.6977 30C86.373 30.9676 85.1117 30.5702 83.7928 29.8848C75.9482 25.8185 67.6543 24.4592 58.9055 25.8127C36.5928 29.2627 21.4624 50.7403 25.7994 72.8399C29.1284 89.8076 43.0494 102.98 59.8213 105.019C77.5378 107.179 93.9469 98.1879 101.394 82.2223C103.427 77.8623 104.671 73.2949 104.976 68.3877C100.559 68.3877 96.2565 68.3877 91.9656 68.3877C89.9382 83.5585 76.7775 93.3498 62.9257 92.1115C49.3791 90.902 38.891 80.0336 38.2862 66.8211C37.6584 53.0384 46.9889 41.2254 60.524 38.8179C66.9863 37.6718 73.1432 38.7546 78.7819 42.1412C86.3788 46.7028 90.6697 53.5165 91.9195 62.2077C96.3372 62.2077 100.634 62.2077 104.936 62.2077C104.936 61.8391 104.953 61.5914 104.936 61.3438C104.481 56.068 102.932 51.1204 100.478 46.4379C99.4531 44.4911 99.8562 42.7748 101.44 41.9224C103.087 41.0355 104.746 41.7093 105.8 43.7424C106.439 44.9807 107.125 46.2133 107.568 47.5207C108.761 51.0686 109.832 54.6569 110.978 58.32C113.034 56.2523 115.206 54.15 117.291 51.9556C118.598 50.5791 119.946 49.3983 122.186 49.8648ZM85.6876 62.2825C85.2269 55.0715 78.0504 44.4854 65.2065 44.422C53.912 44.3644 44.4777 53.4877 44.2358 64.6325C43.9882 76.1632 52.8695 85.8105 64.1064 86.2367C77.0195 86.732 84.9735 76.5605 85.7222 68.3185C83.9828 68.3185 82.2549 68.3185 80.5213 68.3185C78.7531 68.3185 76.9849 68.3185 75.1648 68.3185C75.4586 69.9485 75.1418 71.1927 73.8344 72.0105C72.5615 72.8111 71.3808 72.4195 70.2001 71.711C68.0633 70.4382 65.8689 69.2632 63.7551 67.9615C61.601 66.6368 61.5723 64.0392 63.7091 62.726C66.0359 61.2976 68.4319 59.9672 70.8106 58.6195C71.9683 57.9629 73.27 57.9283 74.1109 58.9132C74.8423 59.7656 75.1246 60.9981 75.7063 62.2767C78.7416 62.2825 82.2146 62.2825 85.6876 62.2825ZM115.378 62.3402C121.507 62.3402 127.174 62.2191 132.836 62.3977C135.266 62.4725 137.109 61.9369 138.647 59.9902C139.788 58.5503 141.227 57.3465 142.794 55.7799C135.727 55.7799 129.115 55.7742 122.509 55.7972C122.198 55.7972 121.818 55.9586 121.593 56.1774C119.606 58.1126 117.648 60.0766 115.378 62.3402ZM142.345 74.8846C142.414 74.7636 142.477 74.6426 142.546 74.5216C140.703 72.7131 138.895 70.8701 136.994 69.1307C136.51 68.6873 135.715 68.3589 135.065 68.3531C128.994 68.2955 122.918 68.3186 116.847 68.3243C116.484 68.3243 116.116 68.3877 115.327 68.4625C116.887 69.9428 118.333 71.0487 119.439 72.431C121.057 74.4468 122.964 75.0342 125.509 74.9421C131.119 74.7463 136.735 74.8846 142.345 74.8846ZM29.7966 135.262C32.6188 135.262 35.1875 135.28 37.7505 135.239C38.027 135.234 38.4187 134.997 38.5627 134.755C40.0947 132.112 41.5922 129.451 43.1185 126.75C40.7283 125.742 38.5166 124.809 36.2415 123.853C34.0932 127.654 32.0025 131.352 29.7966 135.262ZM87.1851 126.767C88.6999 129.439 90.1571 132.037 91.6431 134.611C91.7986 134.876 92.1268 135.222 92.3803 135.228C95.0239 135.274 97.6618 135.257 100.507 135.257C98.2493 131.277 96.1528 127.573 94.039 123.841C91.741 124.82 89.5581 125.753 87.1851 126.767Z" fill="#2C3252"/>
<path d="M95.5826 37.8786C93.8835 37.8613 92.5818 36.5135 92.6221 34.8144C92.6624 33.2075 94.0217 31.8828 95.6113 31.9058C97.2413 31.9289 98.6467 33.3917 98.6006 35.0159C98.5488 36.6401 97.2298 37.8959 95.5826 37.8786Z" fill="#2C3252"/>
</svg>
