<svg width="70" height="64" viewBox="0 0 70 64" fill="none" xmlns="http://www.w3.org/2000/svg">
<path d="M61.8594 15.7377H45.782C45.3929 12.611 43.1946 10.0441 40.2659 9.12243L49.0521 4.25484L47.6458 1.72204L35.3915 8.50799L23.0962 0.165527L21.4714 2.56178L30.9335 8.98588C27.7317 9.74367 25.274 12.4267 24.8643 15.7445H8.78702C4.47924 15.7445 0.97699 19.2467 0.97699 23.5545V55.2109C0.97699 59.5187 4.47924 63.0209 8.78702 63.0209H61.8594C66.1672 63.0209 69.6693 59.5187 69.6693 55.2109V23.5545C69.6762 19.2467 66.1672 15.7377 61.8594 15.7377ZM32.7631 11.6552H37.8833C40.1771 11.6552 42.116 13.1845 42.7441 15.2735H27.9092C28.5304 13.1845 30.4761 11.6552 32.7631 11.6552ZM66.7747 55.2109C66.7747 57.9212 64.5697 60.1263 61.8594 60.1263H8.78702C6.07673 60.1263 3.87159 57.9212 3.87159 55.2109V23.5545C3.87159 20.8442 6.07673 18.6391 8.78702 18.6391H61.8594C64.5697 18.6391 66.7747 20.8442 66.7747 23.5545V55.2109Z" fill="#DAE5E4"/>
<path d="M58.4802 22.1074H12.1732C9.51068 22.1074 7.33975 24.2716 7.33975 26.9341V51.8249C7.33975 54.4874 9.50385 56.6584 12.1732 56.6584H58.4802C61.1427 56.6584 63.3136 54.4943 63.3136 51.8249V26.9341C63.3136 24.2716 61.1427 22.1074 58.4802 22.1074ZM60.4122 51.8249C60.4122 52.8899 59.5452 53.757 58.4802 53.757H12.1732C11.1082 53.757 10.2412 52.8899 10.2412 51.8249V26.9341C10.2412 25.8691 11.1082 25.002 12.1732 25.002H58.4802C59.5452 25.002 60.4122 25.8691 60.4122 26.9341V51.8249Z" fill="#DAE5E4"/>
</svg>
