<svg width="78" height="70" viewBox="0 0 78 70" fill="none" xmlns="http://www.w3.org/2000/svg">
<path d="M39.3693 42.5941C43.3219 39.2198 45.6213 34.3011 45.6213 29.0491C45.6213 19.2187 37.6277 11.2253 27.7973 11.2253C17.9669 11.2253 9.9733 19.2187 9.9733 29.0491C9.9733 34.3011 12.2795 39.2198 16.2253 42.5941C6.43571 47.0977 0 56.9826 0 67.8335V69.0377H6.84387V67.8335C6.84387 56.2751 16.2457 46.8733 27.8041 46.8733C39.3625 46.8733 48.7643 56.2751 48.7643 67.8335V69.0377H55.6082V67.8335C55.5946 56.9826 49.1589 47.0977 39.3693 42.5941ZM38.7842 29.0491C38.7842 35.1039 33.8588 40.0363 27.7973 40.0363C21.7358 40.0363 16.8104 35.1107 16.8104 29.0491C16.8104 22.9944 21.7358 18.0623 27.7973 18.0623C33.8588 18.0623 38.7842 22.9944 38.7842 29.0491Z" fill="#2C3252"/>
<path d="M61.5336 31.5123C65.4862 28.138 67.7856 23.2196 67.7856 17.9677C67.7856 8.13727 59.792 0.143555 49.9616 0.143555C45.3764 0.143555 41.0156 1.89858 37.6753 5.08241C36.4916 6.21172 35.4644 7.50439 34.6276 8.91942L33.9133 10.1236L35.2126 10.6474C36.5392 11.1849 37.7842 11.8447 38.9067 12.6066L39.9476 13.3142L40.6074 12.2392C41.315 11.0895 42.2198 10.0827 43.2879 9.25958C45.2267 7.76971 47.533 6.98049 49.9616 6.98049C56.0164 6.98049 60.9486 11.9062 60.9486 17.9677C60.9486 22.8591 57.6491 27.2061 52.9278 28.5327C51.9414 28.8116 50.9413 28.9545 49.9616 28.9545C49.6351 28.9545 49.295 28.9341 48.914 28.9001L47.6622 28.7775L47.601 30.0361C47.5262 31.5328 47.288 33.0024 46.9003 34.397L46.4309 36.0705L48.6487 35.8732C49.1113 35.8324 49.5399 35.7848 49.9753 35.7848C50.7372 35.7848 51.5536 35.8391 52.4856 35.9479C63.0031 37.2133 70.9286 46.1525 70.9286 56.7381V57.9422H77.7725V56.7517C77.7589 45.9008 71.3232 36.0159 61.5336 31.5123Z" fill="#2C3252"/>
</svg>
