<svg width="150" height="152" viewBox="0 0 150 152" fill="none" xmlns="http://www.w3.org/2000/svg">
<path d="M75.6918 0C77.3442 0.916523 77.826 2.34802 77.7925 4.18775C77.7055 8.67002 77.759 13.1524 77.7724 17.6346C77.7791 19.073 77.351 20.2839 75.9595 20.8994C74.0528 21.7423 71.9321 20.4311 71.8919 18.2234C71.7983 13.1524 71.8585 8.08146 71.8651 3.00378C71.8651 1.54537 72.8486 0.735895 73.9257 0C74.5077 0 75.1031 0 75.6918 0Z" fill="#2C3252"/>
<path d="M74.7619 35.524C89.7206 35.524 104.673 35.5441 119.631 35.4972C121.484 35.4905 122.782 36.1462 123.98 37.5109C132.048 46.7163 140.169 55.8749 148.271 65.0469C150.057 67.0672 150.071 68.2847 148.264 70.3185C131.205 89.5588 114.139 108.793 97.0728 128.026C90.6504 135.265 84.2349 142.496 77.8126 149.735C75.5714 152.257 74.026 152.244 71.7581 149.688C48.3366 123.29 24.9218 96.891 1.50024 70.4991C-0.50006 68.2446 -0.493389 67.1274 1.48015 64.893C9.45457 55.8683 17.4557 46.8703 25.3699 37.792C26.7949 36.1596 28.3201 35.4838 30.4877 35.4905C45.2457 35.5574 60.0039 35.524 74.7619 35.524ZM50.9054 70.78C58.8799 92.7766 66.7874 114.586 74.822 136.763C75.1431 135.9 75.3038 135.492 75.451 135.077C80.9501 120.199 86.4559 105.32 91.955 90.4486C92.8515 88.0201 94.2965 87.0902 96.1028 87.7592C97.8957 88.4215 98.3908 90.0939 97.501 92.5157C97.481 92.5625 97.4608 92.6028 97.4408 92.6496C92.2226 106.792 86.9978 120.928 81.7797 135.071C81.6057 135.539 81.4385 136.014 81.2712 136.482C81.3582 136.522 81.4451 136.562 81.5321 136.603C100.926 114.74 120.32 92.8702 139.922 70.7733C110.112 70.78 80.6356 70.78 50.9054 70.78ZM9.58167 70.6797C29.3505 92.964 48.8116 114.9 68.2727 136.843C68.3596 136.375 68.2458 136.021 68.1187 135.666C60.4319 114.459 52.7385 93.2517 45.0852 72.0311C44.6972 70.9607 44.1821 70.653 43.0715 70.653C32.5081 70.6998 21.9514 70.6797 11.3879 70.6797C10.9464 70.6797 10.5116 70.6797 9.58167 70.6797ZM95.9021 64.6387C88.7037 57.5607 81.6457 50.6299 74.8086 43.9065C67.9648 50.6366 60.907 57.5674 53.7153 64.6387C67.791 64.6387 81.7194 64.6387 95.9021 64.6387ZM34.0669 41.5115C38.5157 48.6764 42.8107 55.6005 46.8381 62.0965C53.8625 55.2192 60.8334 48.3821 67.8444 41.5115C56.6655 41.5115 45.5 41.5115 34.0669 41.5115ZM102.605 62.3776C106.854 55.5204 111.142 48.5962 115.49 41.5851C104.077 41.5851 92.8916 41.5851 81.3916 41.5851C88.59 48.6297 95.5542 55.4602 102.605 62.3776ZM41.4794 64.6923C37.0105 57.4939 32.6888 50.5363 28.3002 43.4718C22.005 50.5966 15.8769 57.534 9.55488 64.6923C20.3725 64.6923 30.7554 64.6923 41.4794 64.6923ZM140.062 64.699C133.687 57.4872 127.546 50.5363 121.297 43.4718C116.862 50.63 112.553 57.5742 108.138 64.699C118.875 64.699 129.258 64.699 140.062 64.699Z" fill="#2C3252"/>
<path d="M85.981 24.1369C86.1951 23.7556 86.476 22.8725 87.058 22.2771C90.4297 18.8117 93.8617 15.3999 97.3004 12.0014C98.7454 10.5764 100.572 10.5228 101.769 11.7538C102.98 13.0048 102.94 14.6639 101.515 16.109C98.0898 19.5944 94.6244 23.0397 91.1523 26.4784C90.2157 27.4083 89.0851 27.8498 87.7806 27.2677C86.6433 26.766 86.0212 25.8897 85.981 24.1369Z" fill="#2C3252"/>
<path d="M49.8283 10.8975C50.203 11.1115 51.0793 11.406 51.6748 11.9813C55.1401 15.353 58.5586 18.7783 61.9504 22.2237C63.3687 23.662 63.4089 25.5084 62.1645 26.6925C60.9135 27.89 59.2477 27.8299 57.8094 26.4116C54.3306 22.9796 50.8853 19.5142 47.4467 16.0422C46.5168 15.0989 46.0953 13.9616 46.6707 12.6637C47.1791 11.5398 48.0622 10.9108 49.8283 10.8975Z" fill="#2C3252"/>
<path d="M101.823 79.4166C101.849 81.0489 100.598 82.3534 98.9795 82.3802C97.3605 82.4069 96.0359 81.1359 96.0092 79.5303C95.9824 77.9247 97.2669 76.5934 98.8658 76.56C100.465 76.5265 101.789 77.811 101.823 79.4166Z" fill="#2C3252"/>
</svg>
