<svg width="151" height="151" viewBox="0 0 151 151" fill="none" xmlns="http://www.w3.org/2000/svg">
<path d="M148.924 68.6263C150.549 66.5458 150.556 65.5356 148.944 63.4885C144.421 57.7418 139.451 52.5705 134.166 48.1217C118.973 35.3305 101.866 27.9381 83.3286 26.1585C66.5034 24.5396 50.0996 27.7373 34.5723 35.6649C31.9297 37.0163 29.3207 38.6085 27.026 40.0134C26.2299 40.5018 25.688 41.2176 25.5007 42.0271C25.3201 42.8098 25.4739 43.6327 25.9356 44.3552C26.8387 45.7601 28.5312 46.1482 30.1435 45.3186C30.4379 45.1648 30.7122 44.9908 30.9798 44.8236L31.1203 44.7365C36.0039 41.6926 41.3893 39.0768 47.1226 36.9694C47.1895 36.9427 47.2631 36.916 47.33 36.8959C39.1683 44.7432 34.7194 55.1461 34.7863 66.2715C34.8532 77.5507 39.5697 88.0272 48.0592 95.7675C49.5377 97.1122 49.7919 98.3833 49.618 100.163C45.323 100.939 42.5869 103.648 42.2524 107.482C42.0583 109.77 42.7742 111.93 44.2861 113.576C45.8716 115.302 48.1328 116.259 50.6415 116.259C61.593 116.272 72.5444 116.265 83.4959 116.265H98.6821C98.8226 116.265 98.9564 116.259 99.0968 116.259C99.4581 116.252 99.7993 116.239 100.107 116.299C101.198 116.513 101.719 117.122 101.706 118.159C101.693 119.122 101.177 119.717 100.161 119.932C99.8194 120.005 99.4381 119.992 99.03 119.985C98.8828 119.978 98.7423 119.978 98.5884 119.978H51.4778C51.344 119.978 51.2035 119.965 51.0563 119.952C50.5746 119.905 50.0328 119.858 49.5979 120.166L49.4173 120.293C48.5743 120.882 47.5173 121.611 47.3501 122.581C47.1962 123.451 47.805 124.334 48.3335 125.116C48.4405 125.27 48.5476 125.424 48.6412 125.571C48.8754 125.933 49.2701 126.073 49.6113 126.173C50.3338 141.768 62.7771 150.592 74.237 150.986C74.5113 150.993 74.7856 151 75.0599 151C87.162 151 99.7324 141.922 100.582 126.254C103.833 125.638 106.282 123.818 107.346 121.203C108.403 118.607 107.994 115.61 106.262 113.101C108.148 110.452 108.463 107.689 107.198 104.886C105.967 102.163 103.733 100.564 100.535 100.136C100.274 98.283 100.796 97.0051 102.348 95.54C113.173 85.3244 117.253 72.6404 114.47 57.8355C114.27 56.7852 113.781 55.9623 113.052 55.4739C112.41 55.0391 111.641 54.8985 110.824 55.0658C109.025 55.427 108.115 56.9724 108.436 59.0932C108.49 59.4544 108.55 59.8157 108.603 60.1703C108.837 61.6555 109.085 63.1942 109.118 64.6927C109.379 76.1927 104.991 85.6589 96.0596 92.8439C94.7484 93.8942 94.1998 95.0315 94.2801 96.5234C94.3269 97.46 94.3202 98.3832 94.3069 99.3666C94.3069 99.5941 94.3002 99.8216 94.3002 100.049H85.6233C85.6233 98.8448 85.6233 97.6474 85.63 96.4499C85.6367 92.5697 85.6434 88.5558 85.5965 84.6288C85.5898 83.8193 85.8106 83.4246 86.5398 82.9362C94.0861 77.8987 97.3708 68.3587 94.5276 59.7354C94.2466 58.879 93.7181 57.2735 91.865 56.9725C90.1725 56.6982 89.189 57.6884 88.4465 58.6919C87.3426 60.1904 85.6099 60.8058 83.9174 60.3108C82.1445 59.789 81.0808 58.6516 80.753 56.9256C80.4118 55.126 81.034 53.6609 82.5928 52.5704C84.5663 51.1856 84.3455 49.7942 84.0378 49.0917C83.5895 48.0748 82.5794 47.0914 81.6294 46.7569C79.8766 46.1414 78.0503 45.7602 76.3376 45.6531C67.072 45.0778 58.5691 50.811 55.659 59.5815C52.7756 68.2784 56.1206 77.9187 63.7806 83.0298C64.4028 83.4446 64.5767 83.7724 64.57 84.4882C64.5366 87.9201 64.5365 91.4057 64.5432 94.7774C64.5432 96.3094 64.5432 97.8413 64.5432 99.3733C64.5432 99.6008 64.5232 99.8283 64.5031 100.069H55.8597C55.8597 99.8684 55.853 99.6745 55.8463 99.4805C55.8262 98.6175 55.8129 97.8013 55.8798 96.9918C56.027 95.2524 55.4115 93.9077 53.8728 92.6166C43.5569 83.9598 39.4292 73.0819 41.6168 60.2773C43.7643 47.6734 51.2503 38.6554 63.2521 34.1865C75.2271 29.7243 86.5733 31.6644 96.9695 39.9533C100.12 42.4687 102.783 45.7199 105.104 49.8945C105.66 50.8913 106.409 51.5469 107.279 51.7878C108.028 51.9952 108.811 51.8747 109.553 51.4466C111.159 50.5167 111.52 48.7504 110.483 46.8371C110.41 46.7033 110.336 46.5629 110.262 46.4291C109.968 45.8672 109.66 45.2784 109.245 44.7566C107.379 42.3683 105.499 40.0134 103.679 37.7255L103.178 37.09C118.685 42.937 131.951 52.4969 142.642 65.5357C143.057 66.0374 142.976 66.1376 142.468 66.7531L142.408 66.8268C133.63 77.4705 122.94 85.9132 110.65 91.9074C110.416 92.0211 110.182 92.1282 109.948 92.2419C109.332 92.5296 108.704 92.8172 108.108 93.1918C106.743 94.0481 106.289 95.7475 107.065 97.139C107.894 98.6375 109.219 99.1727 110.791 98.6576C111.212 98.5171 111.62 98.3298 112.002 98.1492C126.613 91.2251 139.029 81.3038 148.924 68.6263ZM100.087 106.371C101.184 106.572 101.719 107.174 101.719 108.197C101.719 109.221 101.184 109.816 100.08 110.031C99.8127 110.084 99.5049 110.071 99.1838 110.064C99.0567 110.064 98.9296 110.057 98.8025 110.057C82.9941 110.057 67.1858 110.057 51.3774 110.057C51.2503 110.057 51.1232 110.057 50.9961 110.064C50.675 110.071 50.3673 110.077 50.0997 110.031C48.9958 109.823 48.4673 109.228 48.4673 108.197C48.4673 107.167 49.0025 106.572 50.0997 106.371C50.3673 106.318 50.675 106.331 50.9961 106.338C51.1232 106.338 51.2503 106.344 51.3774 106.344C57.6994 106.344 64.0215 106.344 70.3435 106.344H98.7958C98.9095 106.351 99.05 106.344 99.1771 106.338C99.5183 106.324 99.8194 106.318 100.087 106.371ZM74.9662 51.7878C75.0197 51.7878 75.0732 51.7878 75.1267 51.7878C75.207 51.7878 75.294 51.7945 75.381 51.8012C73.6014 56.4105 74.3775 60.3843 77.689 63.629C80.8801 66.7532 84.8607 67.489 89.2493 65.7898C89.6239 68.6732 88.2457 72.7005 85.9578 75.1624C84.573 76.6543 82.8537 77.8384 81.5157 78.7014C80.0372 79.6581 79.415 80.7485 79.4284 82.3541C79.4618 86.3681 79.4552 90.4557 79.4485 94.4027C79.4485 95.9147 79.4418 97.4199 79.4418 98.9252V100.056H70.7649V99.0723C70.7649 97.547 70.7582 96.0151 70.7582 94.4898C70.7448 90.6631 70.7315 86.7026 70.7984 82.8157C70.8318 80.7619 70.0624 79.464 68.2227 78.4605C62.5095 75.343 59.693 68.74 61.3856 62.3979C63.0313 56.2231 68.7245 51.7878 74.9662 51.7878ZM94.2199 126.3C94.2199 130.642 92.3333 135.231 89.1155 138.697C85.6367 142.437 80.8868 144.584 75.7356 144.751C70.4438 144.919 65.2323 142.845 61.4257 139.058C57.9001 135.546 55.9601 131.037 55.9266 126.307H94.2199V126.3Z" fill="#2C3252"/>
<path d="M43.1287 97.1118C43.9048 95.5865 43.3696 93.934 41.7907 93.0041C41.3827 92.7632 40.9545 92.5626 40.5397 92.3686L40.2253 92.2214C27.695 86.2339 16.777 77.7043 7.77232 66.8532C7.19029 66.1507 7.19701 65.9166 7.7991 65.2008C12.2412 59.9291 17.1115 55.1457 22.2628 50.9712C22.818 50.5163 23.2462 49.9343 23.6944 49.3188C23.9085 49.0178 24.136 48.7099 24.3902 48.3955C24.5775 48.1614 24.5708 47.8269 24.3768 47.5995C24.1293 47.3185 23.9152 47.0375 23.7145 46.7699C23.2729 46.2013 22.8649 45.6594 22.2962 45.3048C20.6973 44.2947 19.1921 45.5055 18.6234 45.9604C12.1409 51.1585 6.32729 57.0255 1.33659 63.3943C-0.362661 65.5619 -0.369343 66.4985 1.30314 68.646C8.86948 78.3799 17.9611 86.5016 28.3372 92.7968C31.254 94.563 34.3515 96.1284 37.3419 97.6403C37.8972 97.9213 38.4591 98.2023 39.0144 98.49C39.4894 98.7308 39.9778 98.8446 40.4528 98.8446C41.5499 98.8446 42.5668 98.229 43.1287 97.1118Z" fill="#2C3252"/>
<path d="M149.158 92.9712L148.576 92.4761C146.361 90.6029 144.073 88.6695 141.792 86.803C140.983 86.1407 140.1 85.833 139.25 85.9266C138.474 86.0069 137.771 86.415 137.216 87.0974C136.059 88.5357 136.32 90.2684 137.899 91.6198C140.608 93.9278 142.876 95.821 145.03 97.5939C145.405 97.9016 145.833 98.129 146.321 98.3899C146.575 98.5237 146.85 98.6709 147.164 98.8515C147.258 98.905 147.365 98.9318 147.472 98.9318C147.626 98.9318 147.773 98.8783 147.893 98.7713C148.101 98.5773 148.328 98.3966 148.569 98.2093C149.138 97.7544 149.726 97.2862 150.101 96.6439C150.81 95.4331 150.456 94.0616 149.158 92.9712Z" fill="#2C3252"/>
<path d="M124.86 30.232C124.954 30.232 125.047 30.2119 125.127 30.1718C125.188 30.145 125.268 30.1183 125.362 30.0916C125.736 29.9711 126.298 29.7838 126.68 29.3489C128.967 26.7264 131.383 23.9234 133.657 21.0266C134.654 19.7489 134.393 18.0964 133.008 16.9926C131.697 15.9423 130.065 16.0091 129.048 17.1464C126.88 19.5682 124.345 22.4649 121.97 25.6025C121.354 26.4186 121.261 27.4557 121.722 28.3923C122.278 29.5028 123.508 30.2253 124.86 30.232Z" fill="#2C3252"/>
<path d="M21.8882 27.5229C22.2829 27.9778 22.6708 28.4327 23.0656 28.8943C23.8483 29.8109 24.7916 30.2857 25.7215 30.2857C26.3637 30.2857 27.0059 30.0584 27.588 29.6035C28.2302 29.0951 28.6316 28.3858 28.7119 27.6031C28.8055 26.6932 28.4778 25.7233 27.782 24.8871C25.6412 22.3048 23.7011 19.9766 21.6741 17.6887C21.2727 17.2338 20.7575 16.9326 20.2023 16.6048C19.9414 16.451 19.6738 16.2971 19.3995 16.1165C19.172 15.9693 18.8777 15.9827 18.6703 16.15C18.4361 16.3373 18.1752 16.5045 17.9143 16.6718C17.2654 17.0933 16.6499 17.4946 16.4626 18.1569C16.1883 19.1203 16.2619 20.6255 16.9242 21.5086C18.4896 23.5758 20.2157 25.5828 21.8882 27.5229Z" fill="#2C3252"/>
<path d="M28.3172 100.002C27.8757 99.4735 27.414 98.9249 26.7986 98.5703C25.6278 97.8946 24.3032 98.2224 23.2596 99.44C21.3663 101.654 19.1319 104.27 16.9643 106.899C15.6799 108.458 15.7468 110.298 17.145 111.475C17.7471 111.984 18.416 112.238 19.0917 112.238C20.0016 112.238 20.9114 111.783 21.6808 110.893C23.7614 108.485 25.8419 106.009 27.8623 103.534C28.1767 103.146 28.3774 102.698 28.5982 102.176C28.7052 101.922 28.8256 101.648 28.9795 101.34C29.0932 101.106 29.0531 100.825 28.8725 100.638C28.6785 100.437 28.5045 100.229 28.3172 100.002Z" fill="#2C3252"/>
<path d="M127.074 99.6135C126.673 99.1586 126.151 98.8507 125.596 98.5296C125.335 98.3758 125.067 98.2219 124.8 98.0413C124.572 97.8941 124.278 97.9075 124.064 98.0748C123.836 98.2621 123.575 98.4293 123.328 98.5966C122.692 99.0181 122.09 99.4194 121.876 100.075C121.562 101.018 121.622 102.497 122.257 103.333C124.111 105.782 126.151 108.136 128.118 110.418L128.6 110.973C129.329 111.816 130.212 112.251 131.095 112.251C131.751 112.251 132.413 112.01 133.008 111.528C133.671 110.993 134.065 110.297 134.146 109.508C134.232 108.638 133.931 107.755 133.276 106.952C131.61 104.925 129.402 102.263 127.074 99.6135Z" fill="#2C3252"/>
<path d="M75.0933 17.0531C75.1 17.0531 75.1134 17.0531 75.1201 17.0531C76.8728 17.0397 78.1373 15.7017 78.1841 13.8084C78.2108 12.6845 78.2042 11.5472 78.1975 10.4433C78.1975 9.95497 78.1908 9.47335 78.1908 8.99167C78.1908 8.5033 78.1908 8.00828 78.1975 7.51991C78.2042 6.42276 78.2108 5.29215 78.1774 4.16824C78.1239 2.27498 76.8595 0.957031 75.0933 0.957031C75.0866 0.957031 75.0733 0.957031 75.0666 0.957031C73.2871 0.970411 72.0293 2.30831 72.0026 4.20826C71.9624 7.51978 71.9624 10.7578 72.0026 13.8285C72.0427 15.7017 73.3339 17.0531 75.0933 17.0531Z" fill="#2C3252"/>
<path d="M105.633 22.024C106.135 22.3116 106.663 22.4587 107.172 22.4587C107.419 22.4587 107.667 22.4254 107.908 22.3585C108.791 22.1109 109.567 21.4152 110.155 20.3515C111.467 17.9698 112.865 15.3875 114.437 12.464C114.624 12.1161 114.765 11.7482 114.945 11.2866C115.039 11.039 115.146 10.758 115.287 10.4302C115.38 10.1961 115.327 9.92847 115.146 9.75453C114.972 9.58059 114.792 9.36657 114.604 9.1458C114.129 8.59053 113.594 7.96168 112.872 7.64056C111.493 7.02508 110.068 7.60709 109.232 9.12571C107.392 12.4707 105.994 15.0262 104.71 17.4145C103.686 19.3077 104.047 21.1208 105.633 22.024Z" fill="#2C3252"/>
<path d="M57.1509 16.5718C57.385 17.2809 57.8868 17.8296 58.5558 18.1239C58.8836 18.2644 59.2381 18.338 59.5927 18.338C59.9673 18.338 60.342 18.2577 60.6899 18.1038C61.4057 17.7827 61.9342 17.194 62.4493 16.6254C62.6567 16.3912 62.8574 16.1705 63.0648 15.9765C63.1852 15.8627 63.2521 15.7089 63.2588 15.5417C63.2655 15.3744 63.1986 15.2205 63.0848 15.1L62.9444 14.9529C62.9377 14.886 62.9243 14.8056 62.9042 14.7254C62.6233 13.7888 62.3489 12.8522 62.0746 11.9156C61.3454 9.43364 60.5895 6.87138 59.7533 4.37603C59.2649 2.91762 57.8065 2.20189 56.2076 2.63004C54.515 3.08496 53.5985 4.42957 53.9731 5.90136C54.8629 9.31992 55.8998 12.812 57.1509 16.5718Z" fill="#2C3252"/>
<path d="M90.8683 18.2911C91.0154 18.2911 91.1626 18.2443 91.2763 18.1439C91.3432 18.0904 91.4837 18.0034 91.6175 17.9164C92.1393 17.5953 92.8485 17.1471 93.096 16.4246C94.1397 13.394 95.1565 10.0557 96.1934 6.20229C96.4008 5.43295 96.3005 4.64365 95.8991 3.98135C95.4843 3.29228 94.7819 2.79719 93.9657 2.60988C92.2932 2.22855 90.8816 2.97789 90.3732 4.51658C89.2961 7.78127 88.2725 11.173 87.3426 14.5915C87.1219 15.4077 87.2891 16.2439 87.8109 16.9263C88.4799 17.796 89.5905 18.2911 90.8683 18.2911Z" fill="#2C3252"/>
<path d="M40.5732 21.1674C41.0615 22.0237 41.9245 22.4987 42.841 22.4987C43.2692 22.4987 43.7174 22.3917 44.1322 22.1776C44.7745 21.8431 45.2361 21.2812 45.6776 20.7393C45.8582 20.5186 46.0322 20.3111 46.2061 20.1237C46.4336 19.8829 46.4335 19.5015 46.1994 19.2607L46.0857 19.1403C46.0723 18.9664 46.0522 18.7323 45.9385 18.5115C45.4969 17.6887 45.0554 16.8591 44.6139 16.0296C43.2893 13.5342 41.9111 10.9519 40.4394 8.47659C40.1249 7.94809 39.6365 7.5868 39.0411 7.43962C38.2919 7.2523 37.4222 7.4195 36.6462 7.89449C35.2279 8.75749 34.7061 10.2026 35.3483 11.4804C36.8335 14.444 38.5394 17.615 40.5732 21.1674Z" fill="#2C3252"/>
<path d="M138.353 42.1609C138.554 42.3081 138.748 42.4486 138.902 42.5824C139.016 42.6828 139.163 42.7363 139.317 42.7363C139.384 42.7363 139.457 42.7229 139.524 42.7028C139.792 42.6092 140.033 42.5424 140.247 42.4822C140.715 42.3551 141.116 42.2413 141.451 41.9603L141.638 41.8065C144.247 39.6657 146.95 37.4579 149.512 35.1699C150.737 34.0795 150.803 32.4472 149.686 31.1025C148.556 29.7512 146.937 29.517 145.646 30.5271C142.528 32.9757 139.852 35.2369 137.464 37.4379C136.688 38.1537 136.627 39.7727 136.928 40.6156C137.169 41.3114 137.798 41.7662 138.353 42.1609Z" fill="#2C3252"/>
<path d="M11.8733 86.2408C10.9099 85.7524 9.79941 85.8393 8.90965 86.4748C6.2136 88.3948 3.6045 90.4688 1.16267 92.4357C-0.128489 93.4726 -0.349264 95.2722 0.654229 96.6169C1.26301 97.4397 2.15951 97.8678 3.07603 97.8678C3.71157 97.8678 4.36717 97.6605 4.94251 97.2323C7.57835 95.2922 10.0938 93.3455 12.4286 91.4523C12.9303 91.0442 13.218 90.4554 13.4321 90.0272C13.4923 89.9068 13.5391 89.7998 13.5926 89.7195C13.6528 89.6192 13.6863 89.4987 13.6863 89.3783C13.6729 88.0069 12.9771 86.796 11.8733 86.2408Z" fill="#2C3252"/>
<path d="M1.30985 36.2598C3.48409 37.9591 5.94598 39.8791 8.40788 41.7456C9.15047 42.3075 9.93986 42.5885 10.6891 42.5885C11.5655 42.5885 12.375 42.2072 12.9838 41.4512C13.5257 40.7756 13.7665 40.0196 13.6796 39.2569C13.5792 38.3805 13.0507 37.5375 12.1542 36.8284C9.87966 35.0288 7.56497 33.2493 5.29038 31.5367C4.90237 31.2423 4.46749 31.0483 3.96575 30.8208C3.71822 30.7071 3.45064 30.5868 3.14959 30.4396C2.91544 30.3259 2.64113 30.366 2.45381 30.5399C2.25311 30.7272 2.03236 30.9012 1.79821 31.0885C1.24294 31.53 0.667597 31.9781 0.326409 32.6204C-0.342586 33.8647 0.0320725 35.263 1.30985 36.2598Z" fill="#2C3252"/>
</svg>
