<svg width="33" height="34" viewBox="0 0 33 34" fill="none" xmlns="http://www.w3.org/2000/svg">
<path fill-rule="evenodd" clip-rule="evenodd" d="M14.0324 8.76657C3.03785 12.0236 8.19622 27.929 18.5956 24.9365C29.0942 21.8944 24.7873 5.5674 14.0324 8.76657ZM15.0079 11.429C22.3734 9.42848 24.4318 20.7455 17.6697 22.2418C10.4861 23.8455 7.60929 13.4378 15.0079 11.429ZM31.8056 29.1852C32.8059 26.3911 32.2355 9.31278 31.9461 4.64216C31.1608 2.24484 29.4414 0.566596 23.5969 0.583129C19.2652 0.599662 14.917 0.591202 10.577 0.591202C-1.35998 0.574669 0.152822 5.07141 0.152822 16.2065C0.152822 25.3576 -1.86425 33.1038 9.12206 33.0707C12.3708 33.0624 25.5395 33.5257 28.003 32.575C30.1854 31.7318 31.1195 30.3839 31.8056 29.1852ZM3.00478 11.8754C3.02132 1.58352 2.57494 3.45141 24.6715 3.45141C28.0526 3.45141 29.6067 4.93139 29.615 8.26283L29.6067 25.2586C29.6067 28.9868 27.8129 30.2266 24.3078 30.2266H8.04741C4.24478 30.2266 3.00478 28.6064 3.00478 24.8864V11.8754ZM25.5065 5.6666C26.7299 5.6666 27.7219 6.66741 27.7219 7.8826C27.7219 9.11432 26.7299 10.0978 25.5065 10.0978C24.2747 10.0978 23.2827 9.10605 23.2827 7.8826C23.2745 6.65914 24.2747 5.6666 25.5065 5.6666Z" fill="white"/>
</svg>
