<svg width="32" height="33" viewBox="0 0 32 33" fill="none" xmlns="http://www.w3.org/2000/svg">
<path fill-rule="evenodd" clip-rule="evenodd" d="M26.9724 15.9839C27.5015 16.8189 27.2948 27.425 27.2948 27.4498C27.0633 27.4994 22.6903 27.4831 22.5746 27.4417L22.5581 19.0758C22.649 16.5215 20.7973 15.554 18.8464 16.3311C16.2011 17.3892 17.7221 24.4906 17.2922 27.4417H12.6381L12.6216 12.3633C12.8117 12.3219 16.8541 12.3137 17.1103 12.3633V14.413C17.3831 14.3964 18.3917 11.5113 22.7482 12.0404C24.1122 12.2057 25.2695 12.7107 26.0879 13.8018C26.4268 14.273 27.0303 15.5789 26.9724 15.9839ZM31.9654 5.67572C31.9654 4.20426 32.1969 2.22855 31.4612 1.33575C30.6345 0.335496 29.6095 0.475996 28.386 0.475996H2.80915C0.296103 0.475996 0.279572 2.36084 0.279572 3.84883V29.4002C0.279572 31.7479 1.49478 32.1369 3.44569 32.1369H28.9895C31.1553 32.1369 31.9654 31.4013 31.9654 29.2024V5.67572ZM6.959 4.84906C8.76111 4.79946 8.88512 5.46867 9.33978 5.69186C9.34805 5.7332 10.8112 7.33682 9.57949 9.10587C7.30618 12.3712 2.65211 8.37844 5.42142 5.62567C6.16541 4.88994 6.74406 4.95652 6.959 4.84906ZM9.64564 12.3794L9.67041 27.4498C9.54641 27.4911 5.23952 27.5075 4.97499 27.4579L4.98327 12.3463C5.2478 12.305 8.62883 12.3465 9.36455 12.3382C9.57122 12.3382 9.57124 12.3133 9.64564 12.3794Z" fill="white"/>
</svg>
