<svg width="69" height="81" viewBox="0 0 69 81" fill="none" xmlns="http://www.w3.org/2000/svg">
<path d="M34.4954 42.7579C22.9349 42.7579 13.526 33.3489 13.526 21.7884C13.526 10.2214 22.9349 0.8125 34.4954 0.8125C46.0625 0.8125 55.4714 10.2214 55.4714 21.7884C55.4648 33.3489 46.0625 42.7579 34.4954 42.7579ZM34.4954 3.8919C24.6325 3.8919 16.6053 11.9191 16.6053 21.782C16.6053 31.6449 24.6325 39.6721 34.4954 39.6721C44.3583 39.6721 52.3855 31.6449 52.3855 21.782C52.3855 11.9191 44.3583 3.8919 34.4954 3.8919Z" fill="#606060"/>
<path d="M58.6559 80.1958H10.3348C4.92634 80.1958 0.524536 75.6625 0.524536 70.0895V66.168C0.524536 55.384 8.85441 46.6067 19.099 46.6067H49.8787C60.1232 46.6067 68.4596 55.3774 68.4596 66.168V70.0895C68.4662 75.6625 64.0644 80.1958 58.6559 80.1958ZM19.1055 49.936C10.6967 49.936 3.85385 57.2197 3.85385 66.168V70.0895C3.85385 73.8268 6.76207 76.8732 10.3348 76.8732H58.6559C62.2287 76.8732 65.1369 73.8333 65.1369 70.0895V66.168C65.1369 57.2197 58.2941 49.936 49.8853 49.936H19.1055Z" fill="#606060"/>
</svg>
