<svg width="94" height="94" viewBox="0 0 94 94" fill="none" xmlns="http://www.w3.org/2000/svg">
<path d="M26.8092 62.5301H2.0276C1.17423 62.5301 0.477875 61.8406 0.477875 60.9804V45.4902C0.477875 44.6368 1.17423 43.9404 2.0276 43.9404H26.8092C27.6626 43.9404 28.359 44.6368 28.359 45.4902V60.9804C28.359 61.8406 27.6626 62.5301 26.8092 62.5301ZM3.57732 59.4307H25.2663V47.0399H3.57732V59.4307Z" fill="#F4ECDF"/>
<path d="M51.5909 62.5301H26.8092C25.9559 62.5301 25.2596 61.8406 25.2596 60.9804V45.4902C25.2596 44.6368 25.9559 43.9404 26.8092 43.9404H39.3093C40.1627 43.9404 40.8591 44.6368 40.8591 45.4902C40.8591 46.3435 40.1627 47.0399 39.3093 47.0399H28.3589V59.4307H50.0412V49.163C50.0412 48.3097 50.7376 47.6133 51.5909 47.6133C52.4443 47.6133 53.1407 48.3097 53.1407 49.163V60.9804C53.1407 61.8406 52.4443 62.5301 51.5909 62.5301Z" fill="#F4ECDF"/>
<path d="M76.3726 62.5301H51.5909C50.7376 62.5301 50.0412 61.8406 50.0412 60.9804V49.163C50.0412 48.3097 50.7376 47.6133 51.5909 47.6133C52.4443 47.6133 53.1406 48.3097 53.1406 49.163V59.4307H74.8297V47.0399H68.8356C67.9823 47.0399 67.2861 46.3435 67.2861 45.4902C67.2861 44.6368 67.9823 43.9404 68.8356 43.9404H76.3794C77.2328 43.9404 77.9291 44.6368 77.9291 45.4902V60.9804C77.9223 61.8406 77.2327 62.5301 76.3726 62.5301Z" fill="#F4ECDF"/>
<path d="M39.2 78.0199H14.4183C13.565 78.0199 12.8686 77.3235 12.8686 76.4702V60.9799C12.8686 60.1265 13.565 59.4302 14.4183 59.4302H39.2C40.0533 59.4302 40.7497 60.1265 40.7497 60.9799V76.4702C40.7497 77.3304 40.0533 78.0199 39.2 78.0199ZM15.968 74.9204H37.6571V62.5296H15.968V74.9204Z" fill="#F4ECDF"/>
<path d="M63.9816 78.0199H39.1999C38.3466 78.0199 37.6502 77.3235 37.6502 76.4702V60.9799C37.6502 60.1265 38.3466 59.4302 39.1999 59.4302H63.9816C64.835 59.4302 65.5314 60.1265 65.5314 60.9799V76.4702C65.5314 77.3304 64.835 78.0199 63.9816 78.0199ZM40.7497 74.9204H62.4388V62.5296H40.7497V74.9204Z" fill="#F4ECDF"/>
<path d="M88.7634 78.0199H63.9817C63.1215 78.0199 62.4319 77.3235 62.4319 76.4702V60.9799C62.4319 60.1265 63.1215 59.4302 63.9817 59.4302H88.7634C89.6168 59.4302 90.3131 60.1265 90.3131 60.9799V76.4702C90.3131 77.3304 89.6236 78.0199 88.7634 78.0199ZM65.5314 74.9204H87.2205V62.5296H65.5314V74.9204Z" fill="#F4ECDF"/>
<path d="M26.8092 93.5101H2.0276C1.17423 93.5101 0.477875 92.8206 0.477875 91.9604V76.4701C0.477875 75.6168 1.17423 74.9204 2.0276 74.9204H26.8092C27.6626 74.9204 28.359 75.6168 28.359 76.4701V91.9604C28.359 92.8206 27.6626 93.5101 26.8092 93.5101ZM3.57732 90.4107H25.2663V78.0199H3.57732V90.4107Z" fill="#F4ECDF"/>
<path d="M51.5909 93.5101H26.8092C25.9559 93.5101 25.2596 92.8206 25.2596 91.9604V76.4701C25.2596 75.6168 25.9559 74.9204 26.8092 74.9204H51.5909C52.4443 74.9204 53.1407 75.6168 53.1407 76.4701V91.9604C53.1407 92.8206 52.4443 93.5101 51.5909 93.5101ZM28.3589 90.4107H50.0481V78.0199H28.3589V90.4107Z" fill="#F4ECDF"/>
<path d="M76.3726 93.5101H51.5909C50.7376 93.5101 50.0412 92.8206 50.0412 91.9604V76.4701C50.0412 75.6168 50.7376 74.9204 51.5909 74.9204H76.3726C77.2259 74.9204 77.9223 75.6168 77.9223 76.4701V91.9604C77.9223 92.8206 77.2327 93.5101 76.3726 93.5101ZM53.1406 90.4107H74.8297V78.0199H53.1406V90.4107Z" fill="#F4ECDF"/>
<path d="M39.4252 53.2519C38.1623 53.2383 36.9949 52.5624 36.3463 51.4838C35.6977 50.3983 35.6568 49.0602 36.237 47.9406L51.1129 20.2643C51.6659 19.2266 52.7172 18.5439 53.8914 18.462C55.1203 18.3733 56.3082 18.9194 57.0455 19.9093L72.9044 41.0454C73.6486 42.0285 73.8397 43.3188 73.4096 44.4794C73 45.5785 72.0509 46.3977 70.8972 46.6435L40.1694 53.1768C39.9236 53.2246 39.671 53.2519 39.4252 53.2519ZM54.1576 21.5477H54.1236C54.0007 21.5477 53.8983 21.6229 53.8437 21.7321L38.9678 49.4084C38.8859 49.5859 38.9063 49.7907 39.0292 49.9409C39.1385 50.0979 39.3296 50.1798 39.5207 50.1525L70.2487 43.6192C70.3647 43.5987 70.4672 43.5099 70.5014 43.4007C70.556 43.2368 70.5286 43.0525 70.4125 42.916L54.5536 21.7799C54.4717 21.6297 54.3214 21.5477 54.1576 21.5477Z" fill="#F4ECDF"/>
<path d="M56.1036 38.6768C55.4345 38.6768 54.8407 38.2535 54.629 37.6186C54.4174 36.9837 54.6359 36.2942 55.1684 35.8914L67.2656 26.8184C67.8732 26.361 68.2145 25.6374 68.1667 24.8796L68.0097 22.0874C67.9073 20.2919 68.7129 18.5715 70.1466 17.4997L74.6182 14.1477C75.3009 13.6357 76.2771 13.7722 76.7891 14.4549C77.3012 15.1376 77.1647 16.1138 76.482 16.6259L72.0103 19.9779C71.4027 20.4284 71.0681 21.1589 71.1091 21.9167L71.2661 24.7089C71.3685 26.4975 70.563 28.2248 69.1294 29.2966L57.0321 38.3764C56.7659 38.5675 56.4381 38.6768 56.1036 38.6768Z" fill="#F4ECDF"/>
<path d="M77.8472 19.9845C77.7721 19.9845 77.697 19.9777 77.6287 19.9709C77.2191 19.9094 76.8573 19.6978 76.6115 19.3633L72.0307 13.26C71.5187 12.5773 71.6552 11.6079 72.3447 11.089L85.1247 1.50408C87.1796 -0.0319743 90.0879 0.37763 91.6307 2.43253L92.4909 3.57945C94.027 5.63435 93.6173 8.54263 91.5624 10.0855L90.634 8.84301L91.5624 10.0855L78.7824 19.6705C78.5094 19.8685 78.1818 19.9845 77.8472 19.9845ZM75.4373 12.6388L78.1544 16.2639L89.6918 7.60734C90.3745 7.09532 90.511 6.12591 89.999 5.44322L89.1388 4.29631C88.6268 3.61361 87.6506 3.47707 86.9679 3.98909L75.4373 12.6388Z" fill="#F4ECDF"/>
<path d="M6.66975 53.2386H2.02067C1.16731 53.2386 0.470947 52.5422 0.470947 51.6889C0.470947 50.8355 1.16731 50.1392 2.02067 50.1392H6.66975C7.52312 50.1392 8.21947 50.8287 8.21947 51.6889C8.21947 52.5422 7.52994 53.2386 6.66975 53.2386Z" fill="#F4ECDF"/>
<path d="M19.0606 53.2386H12.8687C12.0153 53.2386 11.3189 52.5422 11.3189 51.6889C11.3189 50.8355 12.0153 50.1392 12.8687 50.1392H19.0606C19.914 50.1392 20.6104 50.8287 20.6104 51.6889C20.6104 52.5422 19.9208 53.2386 19.0606 53.2386Z" fill="#F4ECDF"/>
</svg>
