<svg width="37" height="28" viewBox="0 0 37 28" fill="none" xmlns="http://www.w3.org/2000/svg">
<path fill-rule="evenodd" clip-rule="evenodd" d="M0.621631 18.7532C1.08456 24.8953 1.68804 26.4831 7.97892 26.8551C12.9223 27.1444 18.1633 27.1688 23.2225 27.0779C34.9859 26.8712 37.1931 27.9629 36.2755 9.35478C35.9696 3.22923 35.1181 1.36863 29.0257 1.0793C23.8921 0.831302 18.6098 0.823681 13.4679 0.914614C7.65651 1.01381 2.84535 0.393689 1.37389 4.50219C0.257904 7.61869 0.348833 15.0746 0.621631 18.7532ZM14.8237 8.61046C16.1546 8.94939 23.0985 12.529 23.9665 13.7028C22.8257 14.6287 16.3447 18.1751 14.7823 18.5223L14.8237 8.61046Z" fill="white"/>
</svg>
